#N canvas 564 153 357 133 10;
#N canvas 0 22 351 155 test-noise 0;
#X obj 58 48 noise~;
#X obj 58 92 dac~;
#X obj 105 48 r test_noise @hv_param 0 0.01 0;
#X obj 58 70 *~ 0;
#X connect 0 0 3 0;
#X connect 2 0 3 1;
#X connect 3 0 1 0;
#X connect 3 0 1 1;
#X restore 31 31 pd test-noise;
#N canvas 384 385 499 393 playback 0;
#X obj 51 206 * 1e+07;
#X obj 113 210 * 10000;
#X msg 51 258 1 0 \, \$2 \$1;
#X obj 51 231 pack f f;
#X msg 113 188 48000;
#X obj 113 167 loadbang;
#X msg 51 179 1;
#X obj 51 280 line~;
#X obj 51 356 dac~;
#X obj 51 312 tabread4~ a_mono_sample-0;
#X obj 251 358 dac~;
#X obj 251 314 tabread4~ a_stereo_sample-0;
#X obj 261 334 tabread4~ a_stereo_sample-1;
#X obj 251 206 * 1e+07;
#X obj 313 210 * 10000;
#X msg 251 258 1 0 \, \$2 \$1;
#X obj 251 231 pack f f;
#X msg 313 188 48000;
#X obj 313 167 loadbang;
#X msg 251 179 1;
#X obj 251 280 line~;
#X obj 51 80 metro 129.32;
#X obj 51 154 sel 0;
#X obj 51 58 tgl 15 0 empty empty empty 17 7 0 10 -262144 -1 -1 1 1
;
#X obj 51 102 f;
#X obj 78 102 + 1;
#X obj 51 132 mod 4;
#X obj 251 154 sel 0;
#X obj 251 132 mod 32;
#X obj 51 35 loadbang;
#X connect 0 0 3 0;
#X connect 1 0 3 1;
#X connect 2 0 7 0;
#X connect 3 0 2 0;
#X connect 4 0 1 0;
#X connect 5 0 4 0;
#X connect 6 0 0 0;
#X connect 7 0 9 0;
#X connect 9 0 8 0;
#X connect 9 0 8 1;
#X connect 11 0 10 0;
#X connect 12 0 10 1;
#X connect 13 0 16 0;
#X connect 14 0 16 1;
#X connect 15 0 20 0;
#X connect 16 0 15 0;
#X connect 17 0 14 0;
#X connect 18 0 17 0;
#X connect 19 0 13 0;
#X connect 20 0 11 0;
#X connect 20 0 12 0;
#X connect 21 0 24 0;
#X connect 22 0 6 0;
#X connect 23 0 21 0;
#X connect 24 0 25 0;
#X connect 24 0 26 0;
#X connect 24 0 28 0;
#X connect 25 0 24 1;
#X connect 26 0 22 0;
#X connect 27 0 19 0;
#X connect 28 0 27 0;
#X connect 29 0 23 0;
#X restore 31 71 pd playback;
#N canvas 18 95 249 80 tables 0;
#X obj 23 18 table-mono a_mono_sample;
#X obj 23 38 table-stereo a_stereo_sample;
#X restore 31 51 pd tables;
#X text 138 50 Simple sample playback;
